<svg xmlns:x="http://ns.adobe.com/Extensibility/1.0/" xmlns:i="http://ns.adobe.com/AdobeIllustrator/10.0/" xmlns:graph="http://ns.adobe.com/Graphs/1.0/" xmlns="http://www.w3.org/2000/svg" xmlns:xlink="http://www.w3.org/1999/xlink" xmlns:a="http://ns.adobe.com/AdobeSVGViewerExtensions/3.0/" version="1.1" x="0px" y="0px" viewBox="0 0 100 125" enable-background="new 0 0 100 100" xml:space="preserve"><g><path style="fill:white;" d="M90.1,9.4c-0.6,0-14.2,0.7-24.2,2.4c-11.5,1.9-16.4,11.7-17.6,17.3c-0.8,3.9-0.8,11.3-0.7,18.2c-2.8-3.8-7.2-7.3-13.5-8.4   c-10-1.7-23.6-2.4-24.2-2.4c-1-0.1-2,0.7-2.1,1.7c-0.1,0.5-1.4,12.1,5.3,20.4c3.8,4.6,9.3,7.2,16.5,7.7c2.7,0.2,10.4,0,10.7,0   c1.1,0,2-0.9,2-2c0-1.1-0.9-2-2-2c-0.1,0-7.8,0.2-10.3,0c-6-0.4-10.6-2.5-13.6-6.3c-4.2-5.1-4.7-12.2-4.6-15.5   c4.2,0.3,14.2,1,21.8,2.2c9.4,1.6,13.4,9.9,14.3,14.1c0.2,0.8,0.3,1.7,0.4,2.8c0.1,1.1,0.1,1.8,0.1,1.9c0,0.1,0,0.1,0,0.2   c0.5,9.9-0.5,26.4-0.6,26.6c-0.1,1.1,0.8,2.1,1.9,2.1c0,0,0.1,0,0.1,0c1,0,1.9-0.8,2-1.9c0.1-0.9,1.2-19.1,0.4-29   c-0.3-5.6-1.2-23.5,0.1-29.9c0.9-4.2,4.9-12.6,14.3-14.1c7.6-1.3,17.6-2,21.8-2.2c0.1,3.3-0.4,10.4-4.6,15.5   c-3.1,3.7-7.7,5.8-13.6,6.3c-2.5,0.2-10.3,0-10.3,0c-1.1,0-2,0.8-2,2c0,1.1,0.8,2,2,2c0.3,0,8,0.2,10.7,0   c7.1-0.5,12.7-3.1,16.4-7.7c6.8-8.3,5.4-19.9,5.3-20.4C92,10.1,91.1,9.3,90.1,9.4z"/></g></svg>
