<svg xmlns:dc="http://purl.org/dc/elements/1.1/" xmlns:cc="http://creativecommons.org/ns#" xmlns:rdf="http://www.w3.org/1999/02/22-rdf-syntax-ns#" xmlns:svg="http://www.w3.org/2000/svg" xmlns="http://www.w3.org/2000/svg" xmlns:sodipodi="http://sodipodi.sourceforge.net/DTD/sodipodi-0.dtd" xmlns:inkscape="http://www.inkscape.org/namespaces/inkscape" version="1.1" x="0px" y="0px" viewBox="0 0 100 125"><g transform="translate(0,-952.36218)"><path style="text-indent:0;text-transform:none;direction:ltr;block-progression:tb;baseline-shift:baseline;color:#000000;enable-background:accumulate;" d="m 49.9375,958.3641 a 2.0002,1.9994584 0 0 0 -0.1875,0.03 2.0002,1.9994584 0 0 0 -1.2812,0.688 c 0,0 -7.5523,8.951 -15.125,20.37496 C 25.7709,990.88106 18,1004.6101 18,1015.3621 c 0,17.224 14.3935,31 32,31 17.6065,0 32,-13.776 32,-31 0,-10.752 -7.7709,-24.48104 -15.3438,-35.90504 C 59.0836,968.0331 51.5312,959.0821 51.5312,959.0821 a 2.0002,1.9994584 0 0 0 -1.5937,-0.719 z m 0.062,5.219 c 1.8725,2.273 7.1358,8.698 13.3438,18.06196 7.4269,11.203 14.6562,25.02204 14.6562,33.71804 0,15.003 -12.4665,27 -28,27 -15.5335,0 -28,-11.997 -28,-27 0,-8.696 7.2291,-22.51504 14.6562,-33.71804 6.2079,-9.36396 11.4714,-15.78896 13.3438,-18.06196 z m 20.7188,50.686 a 1.9197407,2.0389883 0 0 0 -1.7188,2.094 c 0,9.792 -8.0818,17.813 -18.25,17.813 a 1.9268131,2.0465 0 1 0 0,4.093 c 12.0947,0 22.0938,-9.741 22.0938,-21.906 a 1.9197407,2.0389883 0 0 0 -2.125,-2.094 z" fill="#000000" fill-opacity="1" stroke="none" marker="none" visibility="visible" display="inline" overflow="visible"/></g><text x="0" y="115" fill="#000000" font-size="5px" font-weight="bold" font-family="'Helvetica Neue', Helvetica, Arial-Unicode, Arial, Sans-serif"></text><text x="0" y="120" fill="#000000" font-size="5px" font-weight="bold" font-family="'Helvetica Neue', Helvetica, Arial-Unicode, Arial, Sans-serif"></text></svg>
