<svg xmlns:dc="http://purl.org/dc/elements/1.1/" xmlns:cc="http://creativecommons.org/ns#" xmlns:rdf="http://www.w3.org/1999/02/22-rdf-syntax-ns#" xmlns:svg="http://www.w3.org/2000/svg" xmlns="http://www.w3.org/2000/svg" xmlns:sodipodi="http://sodipodi.sourceforge.net/DTD/sodipodi-0.dtd" xmlns:inkscape="http://www.inkscape.org/namespaces/inkscape" version="1.1" x="0px" y="0px" viewBox="0 0 100 125"><g transform="translate(0,-952.36218)"><path style="text-indent:0;text-transform:none;direction:ltr;block-progression:tb;baseline-shift:baseline;color:#000000;enable-background:accumulate;" d="m 49.9375,958.36407 c -0.063,0 -0.1255,0.02 -0.1875,0.03 -0.4924,0.06 -0.9593,0.311 -1.2812,0.688 0,0 -7.5523,8.982 -15.125,20.406 C 25.7709,990.91107 18,1004.6101 18,1015.362 c 0,17.224 14.3935,31 32,31 17.6065,0 32,-13.776 32,-31 0,-10.7519 -7.7709,-24.45093 -15.3438,-35.87393 -7.5727,-11.424 -15.125,-20.406 -15.125,-20.406 -0.3862,-0.463 -0.9909,-0.736 -1.5937,-0.719 z M 71.875,1013.363 a 1.9197407,2.0389896 0 0 1 2.125,2.094 c 0,12.165 -9.9991,21.906 -22.0938,21.906 a 1.9272827,2.047 0 1 1 0,-4.094 c 10.1682,0 18.25,-8.02 18.25,-17.812 a 1.9197407,2.0389896 0 0 1 1.7188,-2.094 z" fill="#000000" fill-opacity="1" stroke="none" marker="none" visibility="visible" display="inline" overflow="visible"/></g><text x="0" y="115" fill="#000000" font-size="5px" font-weight="bold" font-family="'Helvetica Neue', Helvetica, Arial-Unicode, Arial, Sans-serif"></text></svg>
